<?xml version="1.0" encoding="UTF-8"?>
<svg version="1.1" xmlns="http://www.w3.org/2000/svg" width="16" height="16">
<path d="M0 0 C2.64 0 5.28 0 8 0 C7.01 0.495 7.01 0.495 6 1 C6 1.66 6 2.32 6 3 C6.66 3.33 7.32 3.66 8 4 C7.34 4 6.68 4 6 4 C5.4465236 6.07553648 5 7.84365964 5 10 C5.99 11.485 5.99 11.485 7 13 C4.03824877 12.38722388 2.61941217 11.74627478 0 10 C0 9.01 0 8.02 0 7 C1.32 6.67 2.64 6.34 4 6 C4 5.34 4 4.68 4 4 C2.68 3.67 1.36 3.34 0 3 C0.66 2.67 1.32 2.34 2 2 C1.34 1.34 0.68 0.68 0 0 Z " fill="#4B4B4B" transform="translate(4,1)"/>
</svg>
